# Blender v2.91.0 OBJ File: 'leaf.blend'
# www.blender.org
mtllib leaf.mtl
o uploads_files_748162_OBJ
v -0.000333 0.001565 0.000257
v -0.061538 0.032819 -0.001933
v -0.005624 0.002850 -0.002801
v -0.067786 0.032229 -0.001376
v -0.006288 0.000858 0.000903
v -0.005582 0.002383 0.002485
v -0.024177 0.016115 0.001537
v -0.066251 0.032208 0.003738
v -0.111312 0.057540 0.004284
v -0.114281 0.052890 0.002482
v -0.117670 0.054566 0.006366
v -0.115609 0.057383 0.007023
v -0.140746 0.068974 0.004375
v -0.204175 0.085074 0.005044
v -0.165667 0.074499 0.002157
v -0.130106 0.062494 0.001916
v -0.160750 0.069049 0.005844
v -0.164307 0.072487 0.007702
v -0.226884 0.088863 0.007326
v -0.233121 0.087180 0.002856
v -0.236642 0.088286 0.008490
v -0.325017 0.104557 0.000415
v -0.216112 0.081841 0.005605
v -0.328990 0.100952 -0.000333
v -0.320963 0.100780 0.004988
v -0.326320 0.099670 0.002711
v -0.337709 0.104485 0.004768
v -0.332267 0.105743 0.002959
v -0.409993 0.105955 -0.002318
v -0.407961 0.108423 0.003216
v -0.419924 0.105017 0.001014
v -0.443679 0.106924 0.000652
v -0.431816 0.110980 -0.001152
v -0.452955 0.109783 -0.004907
v -0.484146 0.106323 -0.006902
v -0.486124 0.103707 -0.003455
v -0.497107 0.107833 -0.003298
v -0.488801 0.106724 -0.001324
v -0.500795 0.105033 -0.003346
v -0.504204 0.105486 -0.004615
v -0.517471 0.102348 -0.004806
v -0.518122 0.102275 -0.005324
v -0.517729 0.101998 -0.005067
v -0.537926 0.095334 -0.004276
v -0.179890 0.102332 -0.053901
v -0.152622 0.094062 -0.049907
v -0.246397 0.108999 -0.053728
v -0.201177 0.106392 -0.048788
v -0.288029 0.118114 -0.050391
v -0.319303 0.119730 -0.052716
v -0.374008 0.118248 -0.054365
v -0.314065 0.117224 -0.111891
v -0.366391 0.123355 -0.100986
v -0.149201 0.088107 -0.020077
v -0.126570 0.079461 -0.021055
v -0.225882 0.087184 0.001682
v -0.264798 0.092343 0.003023
v -0.308677 0.100246 -0.001345
v -0.333810 0.105290 -0.002744
v -0.157964 0.071238 0.000474
v -0.101356 0.046811 0.001280
v -0.434766 0.108148 -0.001891
v -0.130213 0.073638 0.029795
v -0.152459 0.082754 0.029632
v -0.244565 0.096847 0.053633
v -0.220807 0.092483 0.057213
v -0.311204 0.101960 0.032475
v -0.372286 0.103779 0.027057
v -0.330208 0.107171 0.039877
v -0.184235 0.091591 0.077519
v -0.290552 0.105639 0.054275
v -0.260832 0.098733 0.105470
v -0.322271 0.106520 0.106601
v -0.404346 0.126887 -0.084495
v -0.417548 0.124190 -0.060618
v -0.470159 0.119503 -0.040551
v -0.538067 0.096653 -0.004209
v -0.491530 0.107145 -0.002770
v -0.177968 0.090035 -0.021744
v -0.200634 0.092305 0.045616
v -0.192216 0.100451 -0.084602
v -0.254368 0.109780 -0.109181
v -0.218337 0.103375 -0.097724
v -0.404077 0.124073 -0.053357
v -0.226606 0.082854 0.001574
v -0.276148 0.100122 -0.024141
v -0.423328 0.116170 -0.027880
v -0.146220 0.068654 0.000888
v -0.257919 0.086014 -0.000246
v -0.447119 0.105442 -0.002853
v -0.263169 0.094032 0.040311
v -0.447473 0.117459 0.034795
v -0.198078 0.091539 0.084718
v -0.394355 0.113814 0.060535
v -0.379342 0.115074 0.098024
v -0.475292 0.115518 -0.038480
v -0.490215 0.109625 0.027084
v -0.428399 0.118416 0.076097
v -0.220009 0.093753 0.095419
v -0.179143 0.084318 0.035585
vt 0.714483 0.051983
vt 0.859056 0.005691
vt 0.923322 0.127776
vt 0.271819 0.001637
vt 0.124917 0.229948
vt 0.089788 0.138454
vt 0.044103 0.014989
vt 0.567887 0.001313
vt 0.491767 0.001934
vt 0.717040 0.227885
vt 0.650671 0.140020
vt 0.880730 0.224371
vt 0.001871 0.287680
vt -0.021986 0.125635
vt 0.896900 0.332250
vt 0.769638 0.285906
vt 0.248009 0.318835
vt 0.354902 0.237934
vt 0.412411 0.329130
vt 0.545679 0.234918
vt 0.767201 0.407437
vt 0.949965 0.461367
vt -0.010749 0.460528
vt -0.025744 0.297603
vt 0.193642 0.427576
vt 0.651548 0.450225
vt 0.511969 0.467117
vt 0.278325 0.633314
vt 0.881332 0.632106
vt 0.960500 0.571400
vt 0.465842 0.623743
vt 0.734955 0.646050
vt 0.072228 0.638790
vt 0.032611 0.789054
vt -0.033222 0.657039
vt 0.279244 0.805779
vt 0.738460 0.828316
vt 0.951902 0.788441
vt 0.635664 0.653990
vt 0.567069 0.785076
vt 0.886219 0.867175
vt -0.039500 0.846419
vt -0.003262 0.930308
vt 0.708659 0.964422
vt 0.921506 0.942733
vt 0.289437 0.933395
vt 0.534938 0.937143
vt 0.328605 0.857091
vt 0.504641 0.974411
vt 0.005233 0.984533
vt 0.891343 0.984946
vt 0.636159 0.998469
vt 0.342153 0.998239
vt 0.901758 0.998481
vt 0.933904 0.999973
vt -0.056186 0.999967
vt 0.417246 0.000000
vt 0.523260 0.001313
vt 0.068311 0.000000
vt 0.019814 0.998412
vt 0.011875 0.000000
vt 0.068901 0.166700
vt -0.001806 0.166700
vt 0.333849 0.000000
vt 0.479765 0.166700
vt 0.294379 0.166700
vt 0.200972 0.461886
vt 0.125279 0.166700
vt 0.349681 0.514607
vt 0.616075 0.166700
vt 0.566449 0.462034
vt 0.833300 0.160458
vt 0.930049 0.166700
vt 0.998872 0.310676
vt 0.666700 0.735237
vt 0.667817 0.464099
vt 0.833300 0.666700
vt 0.903799 0.511096
vt 0.863728 1.000096
vt 0.479192 0.833300
vt 0.343650 1.000000
vt 0.281627 0.806813
vt 0.093128 0.333300
vt 0.073757 0.500000
vt 0.588028 0.000000
vt 0.892296 0.166700
vt 0.833300 0.000000
vt 0.175914 0.462976
vt 0.001285 0.333300
vt 0.329214 0.499838
vt 0.417057 0.333300
vt 0.056426 0.500000
vt 0.001369 0.666700
vt 0.881251 0.833300
vt 0.956280 0.743022
vt 0.341227 0.703232
vt 0.910175 0.333300
vt 0.999287 0.325483
vt 0.916802 0.500000
vt 1.000000 0.500000
vt 0.041700 0.333300
vt 0.083300 0.704956
vt 0.006156 0.973931
vt 0.041700 0.666700
vt 0.052839 0.999092
vt 0.166441 1.000000
vt 0.572349 0.723176
vt 0.958300 0.500000
vt 0.166112 0.000000
vt 0.991411 0.000000
vt 0.000000 0.500000
vt 0.997561 0.975747
vt 0.166700 0.829153
vt 0.125000 0.759563
vt 0.615078 1.000000
vt 0.992074 0.666700
vn 0.4498 0.8395 0.3050
vn 0.2374 -0.1460 -0.9604
vn 0.2290 0.5292 -0.8170
vn -0.1952 -0.9745 0.1108
vn -0.3773 -0.8360 -0.3984
vn -0.2668 -0.4910 -0.8293
vn 0.9767 -0.2130 0.0257
vn 0.2150 -0.0973 0.9718
vn 0.4143 0.9101 -0.0074
vn -0.0804 -0.2169 0.9729
vn 0.0367 0.1840 -0.9822
vn 0.1367 0.5650 -0.8137
vn 0.3122 0.9499 0.0111
vn -0.2430 -0.8921 0.3809
vn -0.2342 -0.6917 0.6831
vn 0.0426 0.1352 0.9899
vn 0.1752 0.3562 0.9178
vn 0.2130 0.9714 -0.1053
vn 0.0214 -0.1291 -0.9914
vn -0.1407 -0.8663 -0.4793
vn 0.1503 0.8230 0.5477
vn -0.0481 -0.0705 0.9963
vn -0.1054 -0.9827 0.1523
vn 0.1279 0.7450 -0.6547
vn -0.0211 -0.4937 -0.8694
vn -0.0489 -0.1460 0.9881
vn 0.1043 0.9451 0.3096
vn 0.0019 -0.3824 -0.9240
vn -0.0287 -0.9018 0.4312
vn 0.0164 0.9997 0.0195
vn 0.0019 0.3616 0.9323
vn -0.0111 0.3711 0.9285
vn 0.0128 0.6932 -0.7206
vn -0.0300 0.0110 -0.9995
vn -0.2555 0.9323 0.2562
vn -0.0288 -0.9916 0.1263
vn -0.0758 0.0959 0.9925
vn -0.0544 0.0220 0.9983
vn -0.1458 -0.6965 0.7026
vn -0.0405 0.1738 -0.9840
vn -0.1668 0.3560 0.9195
vn 0.2795 -0.9518 -0.1266
vn -0.1946 0.5411 -0.8181
vn 0.0000 0.0000 0.0000
vn 0.4470 -0.0429 -0.8935
vn 0.2355 0.9711 0.0376
vn 0.7090 0.0645 -0.7022
vn 0.1524 -0.0064 -0.9883
vn 0.1184 0.9765 0.1801
vn 0.1609 0.9737 0.1615
vn 0.1142 0.9887 0.0970
vn 0.1237 0.9765 0.1765
vn 0.1406 0.9855 0.0946
vn 0.0476 0.9891 0.1395
vn 0.1427 0.9751 0.1696
vn 0.0625 0.9781 0.1985
vn 0.0679 0.9709 0.2298
vn -0.3706 0.8888 -0.2697
vn 0.1048 0.9933 -0.0482
vn 0.0743 0.9895 0.1238
vn 0.0421 0.9985 -0.0346
vn 0.0200 0.9961 0.0863
vn -0.9750 0.0743 -0.2096
vn 0.0819 0.9939 -0.0739
vn 0.3574 -0.0213 0.9337
vn 0.1777 0.9817 -0.0679
vn 0.1509 0.8775 0.4553
vn 0.2629 0.9480 0.1796
vn -0.4127 0.0494 -0.9095
vn -0.0320 -0.9832 -0.1796
vn -0.9137 0.0683 -0.4005
vn -0.1220 -0.9863 -0.1112
vn 0.8457 -0.4348 0.3095
vn -0.1063 -0.9867 -0.1226
vn -0.1115 -0.9190 -0.3782
vn -0.2788 -0.9446 -0.1733
vn 0.9512 -0.2483 -0.1835
vn -0.1190 -0.9882 0.0964
vn 0.0330 -0.9912 0.1286
vn -0.1156 -0.9846 0.1313
vn -0.0012 -0.9355 -0.3533
vn -0.2559 -0.5115 -0.8203
vn 0.0162 -0.9986 -0.0513
vn -0.9863 -0.1633 -0.0252
vn 0.2228 0.8574 0.4638
vn 0.1539 0.9639 -0.2171
vn 0.4596 0.5135 0.7247
vn 0.2610 0.9415 -0.2131
vn -0.1725 0.1001 0.9799
vn 0.3497 -0.0269 0.9365
vn 0.1363 0.9857 -0.0989
vn -0.1466 0.9869 0.0679
vn -0.9871 0.1520 0.0502
vn 0.6624 -0.2324 0.7122
vn -0.8424 0.5354 0.0606
vn 0.3170 -0.1465 -0.9370
vn 0.0668 0.9968 -0.0436
vn 0.1615 0.9826 -0.0917
vn -0.2245 0.0693 0.9720
vn 0.2182 0.1985 0.9555
usemtl 07___Default
s 1
f 7/1/1 3/2/2 2/3/3
f 5/4/4 10/5/5 4/6/6 3/7/2
f 1/8/7 7/1/1 6/9/8
f 7/1/1 2/3/3 9/10/9
f 10/5/5 5/4/4 8/11/10
f 8/11/10 5/4/4 6/9/8
f 2/3/3 16/12/11 9/10/9
f 16/13/11 2/14/3 4/6/6
f 4/6/6 10/5/5 16/13/11
f 15/15/12 13/16/13 16/12/11
f 16/13/11 10/5/5 17/17/14
f 17/17/14 11/18/15 18/19/16
f 12/20/17 9/10/9 13/16/13
f 14/21/18 15/15/12 20/22/19
f 16/13/11 20/23/19 15/24/12
f 18/19/16 23/25/20 17/17/14
f 19/26/21 18/19/16 14/21/18
f 18/19/16 21/27/22 26/28/23
f 19/26/21 14/21/18 22/29/24
f 22/29/24 20/22/19 24/30/25
f 25/31/26 26/28/23 21/27/22
f 22/29/24 28/32/27 19/26/21
f 24/33/25 29/34/28 22/35/24
f 26/28/23 25/31/26 31/36/29
f 22/29/24 33/37/30 28/32/27
f 29/38/28 33/37/30 22/29/24
f 26/28/23 31/36/29 29/34/28
f 27/39/31 30/40/32 31/36/29
f 28/32/27 30/40/32 27/39/31
f 30/40/32 28/32/27 33/37/30
f 29/38/28 34/41/33 33/37/30
f 34/42/33 29/34/28 35/43/34
f 37/44/35 34/41/33 35/45/34
f 36/46/36 35/43/34 31/36/29
f 33/37/30 38/47/37 32/48/38
f 38/47/37 33/37/30 37/44/35
f 39/49/39 40/50/40 36/46/36
f 39/49/39 38/47/37 37/44/35
f 35/45/34 40/51/40 37/44/35
f 39/49/39 41/52/41 43/53/42
f 39/49/39 37/44/35 41/52/41
f 40/51/40 42/54/43 41/52/41
f 44/55/44 41/52/41 42/54/43
f 44/56/44 43/53/42 41/52/41
f 5/57/4 1/58/7 6/59/8
f 3/2/2 1/58/7 5/57/4
f 1/8/7 3/2/2 7/1/1
f 7/1/1 8/11/10 6/9/8
f 3/7/2 4/6/6 2/14/3
f 16/13/11 17/17/14 23/25/20 20/23/19
f 9/10/9 8/11/10 7/1/1
f 11/18/15 10/5/5 8/11/10
f 8/11/10 12/20/17 11/18/15
f 9/10/9 12/20/17 8/11/10
f 9/10/9 16/12/11 13/16/13
f 17/17/14 10/5/5 11/18/15
f 18/19/16 11/18/15 12/20/17
f 14/21/18 13/16/13 15/15/12
f 12/20/17 13/16/13 18/19/16
f 18/19/16 13/16/13 14/21/18
f 25/31/26 21/27/22 19/26/21 28/32/27
f 19/26/21 21/27/22 18/19/16
f 23/25/20 18/19/16 26/28/23
f 22/29/24 14/21/18 20/22/19
f 20/23/19 23/25/20 24/33/25
f 24/33/25 23/25/20 26/28/23
f 27/39/31 25/31/26 28/32/27
f 24/33/25 26/28/23 29/34/28
f 27/39/31 31/36/29 25/31/26
f 31/36/29 35/43/34 29/34/28
f 31/36/29 30/40/32 32/48/38
f 32/48/38 30/40/32 33/37/30
f 37/44/35 33/37/30 34/41/33
f 32/48/38 36/46/36 31/36/29
f 32/48/38 38/47/37 36/46/36
f 35/43/34 36/46/36 40/50/40
f 39/49/39 36/46/36 38/47/37
f 41/52/41 37/44/35 40/51/40
f 43/53/42 40/50/40 39/49/39
f 42/60/43 40/50/40 43/53/42
f 44/56/44 42/60/43 43/53/42
usemtl 01___Default
f 81/61/45 45/62/46 46/63/47
f 82/64/48 49/65/49 47/66/50
f 47/66/50 56/67/51 48/68/52
f 57/69/53 47/66/50 49/65/49
f 50/70/54 58/71/55 49/65/49
f 51/72/56 75/73/57 76/74/58
f 69/75/59 59/76/60 68/77/61
f 59/76/60 62/78/62 68/77/61
f 95/79/63 69/75/59 68/77/61
f 71/80/64 72/81/65 65/82/66
f 81/61/45 48/68/52 45/62/46
f 79/83/67 56/67/51 60/84/68
f 52/85/69 46/63/47 84/86/70
f 84/86/70 53/87/71 52/85/69
f 85/88/72 46/63/47 55/89/73
f 85/88/72 89/90/74 86/91/75
f 88/92/76 63/93/77 85/88/72
f 94/94/78 92/95/79 91/96/80
f 87/97/81 96/98/82 84/86/70
f 90/99/83 96/98/82 87/97/81
f 96/98/82 77/100/84 76/74/58
f 45/62/46 79/83/67 54/101/85
f 100/102/86 70/103/87 64/104/88
f 63/93/77 70/103/87 93/105/89
f 48/68/52 56/67/51 79/83/67
f 99/106/90 91/96/80 93/105/89
f 57/69/53 65/82/66 56/67/51
f 91/96/80 99/106/90 72/81/65
f 67/107/91 71/80/64 57/69/53
f 84/86/70 86/91/75 87/97/81
f 62/78/62 76/74/58 78/108/92
f 47/66/50 48/68/52 83/109/93 82/64/48
f 53/87/71 51/72/56 50/70/54 52/85/69
f 52/85/69 50/70/54 49/65/49
f 74/110/94 75/73/57 51/72/56 53/87/71
f 54/101/85 55/89/73 46/63/47 45/62/46
f 60/84/68 61/111/95 55/89/73 54/101/85
f 59/76/60 50/70/54 51/72/56
f 76/74/58 62/78/62 59/76/60 51/72/56
f 60/84/68 64/104/88 63/93/77 61/111/95
f 98/112/96 95/79/63 68/77/61 62/78/62
f 56/67/51 65/82/66 66/113/97
f 70/103/87 63/93/77 64/104/88
f 57/69/53 71/80/64 65/82/66
f 99/106/90 66/113/97 65/82/66 72/81/65
f 93/105/89 80/114/98 66/113/97 99/106/90
f 71/80/64 67/107/91 73/115/99
f 95/79/63 73/115/99 69/75/59
f 74/110/94 76/74/58 75/73/57
f 76/74/58 77/100/84 78/108/92
f 62/78/62 78/108/92 97/116/100
f 62/78/62 97/116/100 98/112/96
f 45/62/46 48/68/52 79/83/67
f 56/67/51 66/113/97 80/114/98
f 90/99/83 92/95/79 97/116/100 77/100/84
f 46/63/47 83/109/93 81/61/45
f 46/63/47 82/64/48 83/109/93
f 46/63/47 52/85/69 82/64/48
f 46/63/47 85/88/72 86/91/75
f 84/86/70 46/63/47 86/91/75
f 88/92/76 85/88/72 55/89/73
f 86/91/75 89/90/74 90/99/83
f 90/99/83 89/90/74 91/96/80
f 91/96/80 92/95/79 90/99/83
f 85/88/72 63/93/77 93/105/89
f 73/115/99 94/94/78 91/96/80
f 94/94/78 73/115/99 95/79/63
f 84/86/70 96/98/82 74/110/94
f 56/67/51 80/114/98 100/102/86 60/84/68
f 98/112/96 97/116/100 92/95/79
f 74/110/94 96/98/82 76/74/58
f 54/101/85 79/83/67 60/84/68
f 60/84/68 100/102/86 64/104/88
f 100/102/86 93/105/89 70/103/87
f 55/89/73 61/111/95 88/92/76
f 88/92/76 61/111/95 63/93/77
f 81/61/45 83/109/93 48/68/52
f 89/90/74 85/88/72 93/105/89 91/96/80
f 93/105/89 100/102/86 80/114/98
f 67/107/91 58/71/55 59/76/60 69/75/59
f 47/66/50 57/69/53 56/67/51
f 82/64/48 52/85/69 49/65/49
f 58/71/55 57/69/53 49/65/49
f 58/71/55 67/107/91 57/69/53
f 71/80/64 73/115/99 72/81/65
f 59/76/60 58/71/55 50/70/54
f 98/112/96 92/95/79 94/94/78 95/79/63
f 67/107/91 69/75/59 73/115/99
f 91/96/80 72/81/65 73/115/99
f 74/110/94 53/87/71 84/86/70
f 87/97/81 86/91/75 90/99/83
f 78/108/92 77/100/84 97/116/100
f 90/99/83 77/100/84 96/98/82
